<svg width="91" height="90" viewBox="0 0 91 90" fill="none" xmlns="http://www.w3.org/2000/svg">
<rect x="0.5" width="90" height="90" rx="45" fill="#7A1C21"/>
<path opacity="0.4" d="M45.0331 65.4947C40.2768 62.5569 35.8553 59.0928 31.8496 55.1658C29.0217 52.362 26.8621 48.9385 25.5356 45.1568C23.1655 37.7817 25.9244 29.3531 33.6272 26.8508C37.6928 25.574 42.1145 26.3578 45.5145 28.958C48.9158 26.3607 53.3361 25.5772 57.4019 26.8508C65.1046 29.3531 67.882 37.7817 65.512 45.1568C64.1963 48.9349 62.0495 52.3581 59.235 55.1658C55.2256 59.0885 50.8047 62.5522 46.0515 65.4947L45.533 65.8333L45.0331 65.4947Z" fill="white"/>
<path d="M45.5226 65.8335L45.0331 65.4948C40.2709 62.5573 35.8433 59.0932 31.8311 55.166C28.9898 52.366 26.8173 48.9422 25.4801 45.157C23.1285 37.7819 25.8874 29.3532 33.5902 26.851C37.6558 25.5742 42.1358 26.3586 45.5226 28.9805V65.8335Z" fill="white"/>
<path d="M58.4798 40.8317C58.0613 40.8048 57.6715 40.5956 57.4019 40.2533C57.1322 39.9109 57.0063 39.4654 57.0537 39.0212C57.099 37.5579 56.2664 36.2261 54.9824 35.7079C54.1683 35.4856 53.6752 34.6039 53.8789 33.7343C54.0722 32.8788 54.8733 32.3468 55.6785 32.5394C55.7802 32.5562 55.878 32.5931 55.9671 32.648C58.5415 33.6387 60.2083 36.305 60.0756 39.2203C60.0714 39.6622 59.8992 40.0833 59.5983 40.3871C59.2974 40.6909 58.8937 40.8514 58.4798 40.8317Z" fill="white"/>
</svg>
