<svg width="90" height="91" viewBox="0 0 90 91" fill="none" xmlns="http://www.w3.org/2000/svg">
<rect width="90" height="90.0067" rx="45" fill="#7A1C21"/>
<path opacity="0.4" d="M53.7312 24.1699H36.2708C29.9375 24.1699 26.25 27.8783 26.25 34.2324V55.7533C26.25 62.2116 29.9375 65.8366 36.2708 65.8366H53.7312C60.1667 65.8366 63.75 62.2116 63.75 55.7533V34.2324C63.75 27.8783 60.1667 24.1699 53.7312 24.1699Z" fill="white"/>
<path d="M55.2593 39.6146L57 37.9756L51.7531 33L50.0247 34.6507L51.7531 36.3132L50.0247 37.9756L47.3951 35.482L45.6543 33.8195L43.9136 35.482L44.7778 36.3132L33.2346 47.2478C32.8434 47.6177 32.5943 48.1013 32.5271 48.6213C32.46 49.1413 32.5787 49.6676 32.8642 50.1161L34.4691 52.68L32 55.3493L33.4321 57L36.2469 54.3659L38.9506 55.8995C39.3245 56.11 39.7504 56.223 40.1852 56.2273C40.5172 56.2323 40.8469 56.1736 41.1545 56.0549C41.4621 55.9363 41.7412 55.76 41.9753 55.5366L53.5062 44.602L54.3827 45.4215L56.1358 43.7707L54.3827 42.1083L51.7531 39.6146L53.5062 37.9756L55.2593 39.6146ZM51.7531 42.9278L40.2222 53.8741L36.9383 52.0244L34.9877 48.9102L36.0494 47.8917L39.5432 51.2049L41.2963 49.5541L37.8025 46.241L39.5432 44.5902L43.037 47.8917L44.7778 46.241L41.284 42.9278L43.037 41.2771L46.5309 44.5902L48.2716 42.9278L44.7778 39.6146L46.5309 37.9756L51.7531 42.9278Z" fill="white"/>
</svg>
