<svg width="91" height="90" viewBox="0 0 91 90" fill="none" xmlns="http://www.w3.org/2000/svg">
<rect x="0.5" width="90" height="90" rx="45" fill="#7A1C21"/>
<path opacity="0.4" d="M54.2312 24.1665H36.7708C30.4375 24.1665 26.75 27.8748 26.75 34.229V55.7498C26.75 62.2082 30.4375 65.8332 36.7708 65.8332H54.2312C60.6667 65.8332 64.25 62.2082 64.25 55.7498V34.229C64.25 27.8748 60.6667 24.1665 54.2312 24.1665Z" fill="white"/>
<path fill-rule="evenodd" clip-rule="evenodd" d="M37.3335 33.854V33.8748C36.4356 33.8748 35.7085 34.604 35.7085 35.4998C35.7085 36.3957 36.4356 37.1248 37.3335 37.1248H43.5606C44.4585 37.1248 45.1877 36.3957 45.1877 35.4769C45.1877 34.5832 44.4585 33.854 43.5606 33.854H37.3335ZM53.6668 46.5415H37.3335C36.4356 46.5415 35.7085 45.8123 35.7085 44.9165C35.7085 44.0207 36.4356 43.2894 37.3335 43.2894H53.6668C54.5627 43.2894 55.2918 44.0207 55.2918 44.9165C55.2918 45.8123 54.5627 46.5415 53.6668 46.5415ZM53.6668 56.0623H37.3335C36.7085 56.1457 36.1043 55.8332 35.771 55.3123C35.4377 54.7707 35.4377 54.0832 35.771 53.5623C36.1043 53.0207 36.7085 52.729 37.3335 52.7915H53.6668C54.4981 52.8748 55.1252 53.5832 55.1252 54.4373C55.1252 55.2686 54.4981 55.979 53.6668 56.0623Z" fill="white"/>
</svg>
