<svg width="180" height="34" viewBox="0 0 180 34" fill="none" xmlns="http://www.w3.org/2000/svg">
<path d="M18.24 18.52C19.8933 18.8933 21.2 19.72 22.16 21C23.1467 22.2533 23.64 23.6933 23.64 25.32C23.64 27.72 22.8133 29.6 21.16 30.96C19.5067 32.32 17.1867 33 14.2 33H0.24V4.8H13.76C16.64 4.8 18.8933 5.44 20.52 6.72C22.1733 8 23 9.8 23 12.12C23 13.7733 22.56 15.16 21.68 16.28C20.8267 17.3733 19.68 18.12 18.24 18.52ZM8.08 16H12.04C14.0133 16 15 15.1867 15 13.56C15 11.88 14.0133 11.04 12.04 11.04H8.08V16ZM12.64 26.68C14.6133 26.68 15.6 25.8533 15.6 24.2C15.6 23.3467 15.3333 22.6933 14.8 22.24C14.2933 21.7867 13.56 21.56 12.6 21.56H8.08V26.68H12.64ZM31.0359 8.48C29.6493 8.48 28.5293 8.10667 27.6759 7.36C26.8493 6.58667 26.4359 5.62667 26.4359 4.48C26.4359 3.30667 26.8493 2.33333 27.6759 1.56C28.5293 0.786665 29.6493 0.399998 31.0359 0.399998C32.3959 0.399998 33.4893 0.786665 34.3159 1.56C35.1693 2.33333 35.5959 3.30667 35.5959 4.48C35.5959 5.62667 35.1693 6.58667 34.3159 7.36C33.4893 8.10667 32.3959 8.48 31.0359 8.48ZM34.9159 10.56V33H27.0759V10.56H34.9159ZM49.8206 33.28C47.5806 33.28 45.5673 32.8133 43.7806 31.88C42.0206 30.9467 40.634 29.6133 39.6206 27.88C38.6073 26.1467 38.1006 24.1067 38.1006 21.76C38.1006 19.44 38.6073 17.4133 39.6206 15.68C40.6606 13.9467 42.0606 12.6133 43.8206 11.68C45.6073 10.7467 47.6206 10.28 49.8606 10.28C52.1006 10.28 54.1006 10.7467 55.8606 11.68C57.6473 12.6133 59.0473 13.9467 60.0606 15.68C61.1006 17.4133 61.6206 19.44 61.6206 21.76C61.6206 24.08 61.1006 26.12 60.0606 27.88C59.0473 29.6133 57.6473 30.9467 55.8606 31.88C54.074 32.8133 52.0606 33.28 49.8206 33.28ZM49.8206 26.48C50.914 26.48 51.8206 26.08 52.5406 25.28C53.2873 24.4533 53.6606 23.28 53.6606 21.76C53.6606 20.24 53.2873 19.08 52.5406 18.28C51.8206 17.48 50.9273 17.08 49.8606 17.08C48.794 17.08 47.9006 17.48 47.1806 18.28C46.4606 19.08 46.1006 20.24 46.1006 21.76C46.1006 23.3067 46.4473 24.48 47.1406 25.28C47.834 26.08 48.7273 26.48 49.8206 26.48ZM83.6266 4.8C86.5866 4.8 89.1732 5.4 91.3866 6.6C93.6266 7.77333 95.3466 9.42666 96.5466 11.56C97.7466 13.6933 98.3466 16.1333 98.3466 18.88C98.3466 21.6 97.7332 24.0267 96.5066 26.16C95.3066 28.2933 93.5866 29.9733 91.3466 31.2C89.1332 32.4 86.5599 33 83.6266 33H72.4666V4.8H83.6266ZM83.0266 26.08C85.3199 26.08 87.1199 25.4533 88.4266 24.2C89.7332 22.9467 90.3866 21.1733 90.3866 18.88C90.3866 16.56 89.7332 14.7733 88.4266 13.52C87.1199 12.24 85.3199 11.6 83.0266 11.6H80.3066V26.08H83.0266ZM105.841 8.48C104.454 8.48 103.334 8.10667 102.481 7.36C101.654 6.58667 101.241 5.62667 101.241 4.48C101.241 3.30667 101.654 2.33333 102.481 1.56C103.334 0.786665 104.454 0.399998 105.841 0.399998C107.201 0.399998 108.294 0.786665 109.121 1.56C109.974 2.33333 110.401 3.30667 110.401 4.48C110.401 5.62667 109.974 6.58667 109.121 7.36C108.294 8.10667 107.201 8.48 105.841 8.48ZM109.721 10.56V33H101.881V10.56H109.721ZM143.505 10.36C146.332 10.36 148.545 11.2133 150.145 12.92C151.772 14.6267 152.585 16.96 152.585 19.92V33H144.745V20.96C144.745 19.76 144.412 18.8267 143.745 18.16C143.079 17.4933 142.172 17.16 141.025 17.16C139.879 17.16 138.972 17.4933 138.305 18.16C137.639 18.8267 137.305 19.76 137.305 20.96V33H129.465V20.96C129.465 19.76 129.132 18.8267 128.465 18.16C127.825 17.4933 126.932 17.16 125.785 17.16C124.612 17.16 123.692 17.4933 123.025 18.16C122.359 18.8267 122.025 19.76 122.025 20.96V33H114.185V10.56H122.025V13.52C122.719 12.56 123.612 11.8 124.705 11.24C125.825 10.6533 127.105 10.36 128.545 10.36C130.199 10.36 131.665 10.72 132.945 11.44C134.252 12.16 135.279 13.1733 136.025 14.48C136.825 13.2533 137.879 12.2667 139.185 11.52C140.492 10.7467 141.932 10.36 143.505 10.36ZM155.601 21.76C155.601 19.44 156.014 17.4133 156.841 15.68C157.694 13.9467 158.841 12.6133 160.281 11.68C161.747 10.7467 163.374 10.28 165.161 10.28C166.707 10.28 168.041 10.5867 169.161 11.2C170.281 11.8133 171.147 12.64 171.761 13.68V10.56H179.601V33H171.761V29.88C171.147 30.92 170.267 31.7467 169.121 32.36C168.001 32.9733 166.681 33.28 165.161 33.28C163.374 33.28 161.747 32.8133 160.281 31.88C158.841 30.9467 157.694 29.6133 156.841 27.88C156.014 26.12 155.601 24.08 155.601 21.76ZM171.761 21.76C171.761 20.32 171.361 19.1867 170.561 18.36C169.787 17.5333 168.827 17.12 167.681 17.12C166.507 17.12 165.534 17.5333 164.761 18.36C163.987 19.16 163.601 20.2933 163.601 21.76C163.601 23.2 163.987 24.3467 164.761 25.2C165.534 26.0267 166.507 26.44 167.681 26.44C168.827 26.44 169.787 26.0267 170.561 25.2C171.361 24.3733 171.761 23.2267 171.761 21.76Z" fill="white"/>
</svg>
